<svg width="17" height="11" viewBox="0 0 17 11" fill="none" xmlns="http://www.w3.org/2000/svg">
<path fill-rule="evenodd" clip-rule="evenodd" d="M0.6875 1.46875C0.6875 1.26155 0.76981 1.06284 0.916323 0.916323C1.06284 0.76981 1.26155 0.6875 1.46875 0.6875H15.5312C15.7385 0.6875 15.9372 0.76981 16.0837 0.916323C16.2302 1.06284 16.3125 1.26155 16.3125 1.46875C16.3125 1.67595 16.2302 1.87466 16.0837 2.02118C15.9372 2.16769 15.7385 2.25 15.5312 2.25H1.46875C1.26155 2.25 1.06284 2.16769 0.916323 2.02118C0.76981 1.87466 0.6875 1.67595 0.6875 1.46875ZM0.6875 5.375C0.6875 5.1678 0.76981 4.96909 0.916323 4.82257C1.06284 4.67606 1.26155 4.59375 1.46875 4.59375H15.5312C15.7385 4.59375 15.9372 4.67606 16.0837 4.82257C16.2302 4.96909 16.3125 5.1678 16.3125 5.375C16.3125 5.5822 16.2302 5.78091 16.0837 5.92743C15.9372 6.07394 15.7385 6.15625 15.5312 6.15625H1.46875C1.26155 6.15625 1.06284 6.07394 0.916323 5.92743C0.76981 5.78091 0.6875 5.5822 0.6875 5.375ZM0.6875 9.28125C0.6875 9.07405 0.76981 8.87533 0.916323 8.72882C1.06284 8.58231 1.26155 8.5 1.46875 8.5H9.28125C9.48845 8.5 9.68717 8.58231 9.83368 8.72882C9.98019 8.87533 10.0625 9.07405 10.0625 9.28125C10.0625 9.48845 9.98019 9.68717 9.83368 9.83368C9.68717 9.98019 9.48845 10.0625 9.28125 10.0625H1.46875C1.26155 10.0625 1.06284 9.98019 0.916323 9.83368C0.76981 9.68717 0.6875 9.48845 0.6875 9.28125Z" fill="#FBFBFB"/>
</svg>
